<svg id="SvgFurcanManColorful" xmlns="http://www.w3.org/2000/svg" xml:space="preserve" width="900px" height="700px" version="1.1" viewBox="0 0 900 700" xmlns:xlink="http://www.w3.org/1999/xlink">
<defs>

<style type="text/css">

svg#SvgFurcanManColorful {
shape-rendering:geometricPrecision; 
text-rendering:geometricPrecision; 
image-rendering:optimizeQuality; 
fill-rule:evenodd; 
clip-rule:evenodd;}

.fil35 {fill:#C1B6AC}
.fil16 {fill:#D1D2D2}
.fil36 {fill:#D6CABF}
.fil17 {fill:#EBECEC}
.fil28 {fill:#F5F6F6}
.fil14 {fill:#002E42;fill-rule:nonzero}
.fil18 {fill:#00A45A;fill-rule:nonzero}
.fil4 {fill:#00A9BF;fill-rule:nonzero}
.fil19 {fill:#00B462;fill-rule:nonzero}
.fil3 {fill:#00BCD4;fill-rule:nonzero}
.fil5 {fill:#10262F;fill-rule:nonzero}
.fil6 {fill:#383838;fill-rule:nonzero}
.fil37 {fill:#445C66;fill-rule:nonzero}
.fil11 {fill:#615549;fill-rule:nonzero}
.fil38 {fill:#7A7A7A;fill-rule:nonzero}
.fil0 {fill:#AAA9AD;fill-rule:nonzero}
.fil29 {fill:#B8B8B8;fill-rule:nonzero}
.fil2 {fill:#BFBFBF;fill-rule:nonzero}
.fil22 {fill:#C1B6AC;fill-rule:nonzero}
.fil26 {fill:#C2C2C2;fill-rule:nonzero}
.fil21 {fill:#C6C61A;fill-rule:nonzero}
.fil8 {fill:#CE6356;fill-rule:nonzero}
.fil1 {fill:#D1D2D2;fill-rule:nonzero}
.fil23 {fill:lightgrey;fill-rule:nonzero}
.fil25 {fill:#D4D4D4;fill-rule:nonzero}
.fil15 {fill:#D5A17E;fill-rule:nonzero}
.fil20 {fill:#E2DD2A;fill-rule:nonzero}
.fil24 {fill:#E3E3E3;fill-rule:nonzero}
.fil10 {fill:#E56E60;fill-rule:nonzero}
.fil27 {fill:#EBEBEB;fill-rule:nonzero}
.fil12 {fill:#EDB38C;fill-rule:nonzero}
.fil7 {fill:#FDC3AC;fill-rule:nonzero}
.fil9 {fill:#FFC8A3;fill-rule:nonzero}
.fil13 {fill:white;fill-rule:nonzero}
.fil33 {fill:url(#id0)}
.fil31 {fill:url(#id1)}
.fil32 {fill:url(#id2)}
.fil34 {fill:url(#id3)}
.fil30 {fill:url(#id4)}

g#furcan-man-ball-right {
animation: furcan-man-ball-right 1s ease-in-out infinite;
animation-delay: 0s;
transform:rotate(0deg) translate(-.5px,0);
transform-origin: 26% 46%;}

@keyframes furcan-man-ball-right {
0% { transform:rotate(0deg) translate(-.5px,0);}
50% { transform:rotate(-3.5deg) translate(-.5px,0);}
100% { transform:rotate(0deg) translate(-.5px,0);}
}


g#furcan-man-ball-left {
animation: furcan-man-ball-left 1s ease-in-out infinite;
animation-delay:.5s;
transform:rotate(0deg) translate(.5px,0);
transform-origin: 26% 49%;}

@keyframes furcan-man-ball-left {
0% { transform:rotate(0deg) translate(.5px,0);}
50% { transform:rotate(3.5deg) translate(.5px,0);}
100% { transform:rotate(0deg) translate(.5px,0);}
}


g#furcan-man-head {
animation: furcan-man-head 2s ease-in-out infinite;
transform:rotate(0deg);
transform-origin: 60% 25%;}

@keyframes furcan-man-head {
0% { transform:rotate(0deg);}
50% { transform:rotate(2deg);}
100% { transform:rotate(0deg);}
}


g#furcan-man-chair {
animation: furcan-man-chair 3s ease-in-out infinite;
transform:rotate(0deg);
transform-origin: 60% 25%;}

@keyframes furcan-man-chair {
0% { transform:rotate(0deg);}
50% { transform:rotate(.2deg);}
100% { transform:rotate(0deg);}
}

#furcan-man-hand-right {
animation: furcan-man-hand-right 1s ease-in-out infinite;
transform:rotate(0deg);
transform-origin: 60% 55%;}

@keyframes furcan-man-hand-right {
0% { transform:rotate(0deg);}
50% { transform:rotate(-3deg);}
100% { transform:rotate(0deg);}
}


#furcan-man-arm-right {
animation: furcan-man-arm-right 1s ease-in-out infinite;
transform:rotate(0deg);
transform-origin: 66% 50%;}

@keyframes furcan-man-arm-right {
0% { transform:rotate(0deg);}
50% { transform:rotate(-2deg);}
100% { transform:rotate(0deg);}
}


g#furcan-man-arm-left {
animation: furcan-man-arm-left 1s ease-in-out infinite;
animation-delay:.5s;
transform:rotate(0deg);
transform-origin: 68% 50%;}

@keyframes furcan-man-arm-left {
0% { transform:rotate(0deg);}
50% { transform:rotate(-2deg);}
100% { transform:rotate(0deg);}
}


g#furcan-man-leg-right {
animation: furcan-man-leg-right 1.5s ease-in-out infinite;
transform:rotate(0deg);
transform-origin: 60% 50%;}

@keyframes furcan-man-leg-right {
0% { transform:rotate(0deg);}
50% { transform:rotate(-.4deg);}
100% { transform:rotate(0deg);}
}


<!--g#furcan-man-leg-left {
animation: furcan-man-leg-left 1s ease-in-out infinite;
transform:rotate(0deg);
transform-origin: 40% 60%;}

@keyframes furcan-man-leg-left {
0% { transform:rotate(0deg);}
50% { transform:rotate(1deg);}
100% { transform:rotate(0deg);}
}-->



#furcan-man-mouth {
animation: furcan-man-mouth 3s ease-in-out infinite;
transform: scaleY(1);
transform-origin: 63% 28%;}

@keyframes furcan-man-mouth {
0% { transform:scaleY(1);}
50% { transform:scaleY(.8);}
100% { transform:scaleY(1);}
}

path#furcan-man-eyebrow-left,
path#furcan-man-eyebrow-right {
animation: furcan-man-eyebrow-right 1.5s ease-in-out infinite;
transform: translate(0, 0);}

@keyframes furcan-man-eyebrow-right {
0% { transform:translate(0, 0);}
50% { transform:translate(0, 1px);}
100% { transform:translate(0, 0);}
}



rect#furcan-man-keyboard {
transform: translate(8px, 0);}



.furcan-man-lights {
transform: translate(.8%,-.5%);
fill: rgba(255, 255, 209, 0.1);}
.furcan-man-lights {
animation: furcan-man-lights 2s ease-in-out infinite;
transform-origin: 60% 50%;}

@keyframes furcan-man-lights {
0% { transform: translate(.8%,-.5%);}
50% { transform: translate(1%,-.5%);}
100% { transform: translate(.8%,-.5%);}
}
</style>

<filter id="furcan-man-screen-shadow" x="0" y="0" width="200%" height="200%">
    <feGaussianBlur result="blurOut" in="offOut" stdDeviation="2" />
</filter>

<radialGradient id="id0" gradientUnits="userSpaceOnUse" gradientTransform="matrix(1.28175 -0.0223731 0.0223731 1.28175 -70 -111)" cx="215.55" cy="409.61" r="5.24" fx="215.55" fy="409.61">
<stop offset="0" style="stop-opacity:1; stop-color:whitesmoke"/>
<stop offset="0.360784" style="stop-opacity:1; stop-color:#CCCCCC"/>
<stop offset="1" style="stop-opacity:1; stop-color:#A3A3A3"/>
</radialGradient>
<radialGradient id="id1" gradientUnits="userSpaceOnUse" gradientTransform="matrix(1.28204 -0.0223781 0.0223781 1.28204 -78 -110)" xlink:href="#id0" cx="242.4" cy="410.18" r="5.24" fx="242.4" fy="410.18">
</radialGradient>
<radialGradient id="id2" gradientUnits="userSpaceOnUse" gradientTransform="matrix(1.28204 -0.0223781 0.0223761 1.28193 -74 -110)" xlink:href="#id0" cx="228.98" cy="409.9" r="5.24" fx="228.98" fy="409.9">
</radialGradient>
<radialGradient id="id3" gradientUnits="userSpaceOnUse" gradientTransform="matrix(1.28193 -0.0223762 0.0223761 1.28193 -66 -111)" xlink:href="#id0" cx="202.12" cy="409.33" r="5.24" fx="202.12" fy="409.33">
</radialGradient>
<radialGradient id="id4" gradientUnits="userSpaceOnUse" gradientTransform="matrix(1.28193 -0.0223762 0.0223761 1.28193 -81 -110)" xlink:href="#id0" cx="255.83" cy="410.47" r="5.24" fx="255.83" fy="410.47">
</radialGradient>
</defs>
<g>
<g id="_1837314258352">
<g id="furcan-man-chair">
<g>
<path class="fil0" d="M530.78 662.98l34.14 -16.93 0 -11.81 -38.63 25.89 4.49 2.85zm48.64 -22.84l-11.12 0 0 -97.25 11.12 0 0 97.25zm37.53 22.84l-34.15 -16.93 0 -11.81 38.63 25.89 -4.48 2.85z"/>
<path class="fil1" d="M578.61 598.65l-9.49 0c-1.11,0 -2.01,0.9 -2.01,2l0 34.16c0,1.1 0.9,2 2.01,2l9.49 0c1.1,0 2,-0.9 2,-2l0 -34.16c0,-1.1 -0.9,-2 -2,-2zm-0.82 -68.41l-7.85 0c-2.77,0 -5.02,2.26 -5.02,5.02l0 5.66c0,2.76 2.25,5.02 5.02,5.02l7.85 0c2.76,0 5.01,-2.26 5.01,-5.02l0 -5.66c0,-2.76 -2.25,-5.02 -5.01,-5.02z"/>
<path class="fil0" d="M590.52 537.88l-33.32 0c-2.76,0 -5.01,-2.26 -5.01,-5.02l0 -19.68c0,-2.76 2.25,-5.02 5.01,-5.02l33.32 0c2.76,0 5.02,2.26 5.02,5.02l0 19.68c0,2.76 -2.26,5.02 -5.02,5.02z"/>
<path class="fil2" d="M578.99 632.29l-10.26 0c-2.76,0 -5.01,2.25 -5.01,5.02l0 5.66c0,2.76 2.25,5.01 5.01,5.01l10.26 0c2.76,0 5.02,-2.25 5.02,-5.01l0 -5.66c0,-2.77 -2.26,-5.02 -5.02,-5.02z"/>
<path class="fil0" d="M576.39 670.8l-5.06 0 0 -32.33c0,-1.29 1.06,-2.34 2.35,-2.34 1.39,0 2.71,0.69 2.71,2.34l0 32.33z"/>
<g>
<path class="fil2" d="M629.18 666.29c0,3.73 -3.03,6.76 -6.75,6.76 -3.73,0 -6.76,-3.03 -6.76,-6.76 0,-3.73 3.03,-6.75 6.76,-6.75 3.72,0 6.75,3.02 6.75,6.75z"/>
<path class="fil2" d="M580.61 671.67c0,3.73 -3.02,6.75 -6.75,6.75 -3.73,0 -6.75,-3.02 -6.75,-6.75 0,-3.73 3.02,-6.75 6.75,-6.75 3.73,0 6.75,3.02 6.75,6.75z"/>
<path class="fil2" d="M518.55 666.29c0,3.73 3.02,6.76 6.75,6.76 3.73,0 6.75,-3.03 6.75,-6.76 0,-3.73 -3.02,-6.75 -6.75,-6.75 -3.73,0 -6.75,3.02 -6.75,6.75z"/>
</g>
</g>
<g>
<path class="fil3" d="M633.87 521.53l-116.32 0c-1.28,0 -2.31,-1.03 -2.31,-2.31l0 -17.63c0,-1.28 1.03,-2.31 2.31,-2.31l116.32 0c1.28,0 2.31,1.03 2.31,2.31l0 17.63c0,1.28 -1.03,2.31 -2.31,2.31z"/>
<path class="fil4" d="M664.28 507.1c2.75,-10.5 8.74,-40.15 8.87,-99.9 0.13,-58.45 10.75,-107.49 15.38,-131.02 0.72,-3.65 -0.15,-7.09 -2.52,-9.97 -2.36,-2.87 -5.57,-4.39 -9.3,-4.39l-108.73 0c0,0 -44.3,79.25 -50.11,106.41 -5.81,27.16 -13.93,138.48 -13.93,138.48l120.2 22.67 8.42 0c2.47,0 4.59,-0.64 6.64,-2.01l20.08 -13.29c2.57,-1.7 4.22,-4 5,-6.98z"/>
<path class="fil3" d="M624.14 529.38l-144.14 0c-6.64,0 -12.05,-5.41 -12.05,-12.05l0 -12.19c0,-4.16 1.93,-7.74 5.4,-10.04l21.34 -14.13c2.49,0 13.76,-100.6 16.36,-112.74 4.82,-22.53 32.81,-80.9 43.34,-100.15 2.17,-3.96 6.04,-6.26 10.56,-6.26l101.62 0c3.73,0 6.94,1.52 9.3,4.39 2.37,2.88 3.24,6.32 2.52,9.97 -4.63,23.53 -15.25,72.57 -15.38,131.02 -0.05,25.61 -1.09,51.28 -4.49,76.69 -1.12,8.01 -10.91,13.77 -19.41,23.62 -1.97,2.27 -2.93,4.86 -2.93,7.87l0 1.95c0,6.64 -5.41,12.05 -12.04,12.05z"/>
</g>
</g>
<g id="furcan-man-leg-left">
<path class="fil5" d="M438.48 647.59l-2.04 10.23 -16.65 15.46c-1.77,1.64 -2.32,4.06 -1.44,6.31 0.88,2.24 2.94,3.64 5.35,3.64l25.43 0c2.74,0 5.05,-1.87 5.62,-4.55l6.01 -28.4 -22.28 -2.69z"/>
<path class="fil6" d="M518.8 423.27c0,0 -54.2,44.64 -60.25,58.46 -5.4,12.35 -19.32,139.1 -22.23,166.08 -0.15,1.38 0.22,2.62 1.1,3.7 0.87,1.07 2.01,1.69 3.4,1.82l15.97 1.57c2.5,0.25 4.76,-1.34 5.36,-3.77 3.95,-15.87 18.17,-72.36 25.74,-94.1 7.31,-21 13.46,-44.73 15.37,-52.33 0.41,-1.62 1.47,-2.83 3.02,-3.44 7.51,-2.98 30.84,-12.04 43.66,-15.12 62.6,-15.06 49.77,-54.23 48.91,-79.29l-80.05 16.42z"/>
</g>
<g id="furcan-man-leg-right">
<path class="fil5" d="M518.66 653.75l-2.75 15.65 -8.12 8.24c-1.82,1.85 -2.51,4.43 -1.33,7.02 1.17,2.6 3.69,4.27 6.43,4.27l23.66 0c3.44,0 5.53,-2.82 5.61,-6.24l0.21 -9.54 -0.7 -19.43 -23.01 0.03z"/>
<path class="fil6" d="M566.08 430.5c0,0 -42.08,30.24 -48.13,44.07 -5.4,12.34 2.64,148.94 -1.12,177.99 -0.18,1.45 0.2,2.76 1.14,3.87 0.94,1.11 2.17,1.72 3.62,1.78l16.66 0.73c2.28,0.09 4.63,-1.2 4.99,-3.46l24.21 -153.79c0.3,-1.9 2.07,-3.09 3.97,-3.4 8.88,-1.42 34.98,-6.01 46.5,-12.15 24.29,-12.96 18.19,-30.58 17.33,-55.64l-69.17 0z"/>
</g>
<g id="furcan-man-arm-left">
<path class="fil7" d="M407.01 393.83l-23.23 9.41c-2.2,0.89 -3.61,2.59 -4.78,4.65l-5.55 9.73c-0.36,0.64 -0.36,1.37 0.01,2 0.37,0.64 1,1 1.73,1l4.13 0c0.96,0 1.78,-0.23 2.6,-0.73l10.4 -6.32 2.39 4.49c0.86,1.63 2.41,2.6 4.25,2.67l1.47 0.05c1.24,0.04 2.75,0.03 3.3,-1.08l3.84 -7.81 11.71 -7.59 -12.27 -10.47z"/>
<path class="fil8" d="M536.33 255.73c-10.2,6.4 -24.79,16.68 -29.45,25.71 -7.41,14.37 -36.3,62.8 -38.96,67.55 -2.65,4.76 -66.73,43.54 -66.73,43.54l16.46 14.78c0,0 53.61,-24.25 65.3,-33.03 11.7,-8.77 50.76,-54.07 59,-72.26 3.2,-7.05 4.9,-12 5.71,-15.95l-11.33 -30.34z"/>
</g>
<g>
<path class="fil9" d="M591.96 213.04c0,0 -0.29,2.3 0.58,10.42 0.86,8.12 4.61,12.44 6.62,15.03 2.02,2.6 15.55,9.22 18.72,10.95 0,0 -31.11,40.23 -53.24,39.32 -42.34,-1.73 -14.08,-41.11 -14.08,-41.11 0,0 7.43,-3.55 12.31,-7.71 2.9,-2.48 4.32,-16.48 4.32,-16.48l24.77 -10.42z"/>
<path class="fil10" d="M562.87 239.94c0,0 -10.01,22.7 5.05,25.21 23.95,3.98 31.24,-26.66 31.24,-26.66 15.9,8.19 31,13.86 47.1,23.01 0,0 -14.4,23.61 -15.55,36.86 -1.15,13.25 10.37,49.54 9.22,76.61 -0.95,22.18 -3.35,44.28 -4.18,56.03 -26.15,15.6 -117.61,11.91 -123.25,-10.02 4.24,-16.34 5.31,-42.07 5.31,-46.87 0,-7.74 3.52,-44.57 6.36,-74.6 2.74,-29.04 3.91,-40.86 18.73,-48.22l19.97 -11.35z"/>
</g>
<g id="furcan-man-arm-right">
<path id="furcan-man-hand-right" class="fil7" d="M535.74 389.74l-5.78 0.95 -16.75 -4.1c-2.95,-0.72 -5.69,-0.25 -8.35,1.44 -9.57,6.1 -16.75,10.22 -25.41,18.24 -0.56,0.53 -0.84,1.29 -0.75,2.11 0.09,0.83 0.51,1.48 1.17,1.82l1.02 0.52c0.64,0.33 1.33,0.26 1.92,-0.19l5.14 -3.93 -0.39 2.06c-0.12,0.63 -0.03,1.23 0.28,1.76 0.31,0.54 0.75,0.87 1.3,0.99l3.81 0.79c0.56,0.12 1.09,-0.02 1.55,-0.41l3.7 -3.12 0.35 2.5c0.14,1.01 0.53,1.9 1.37,2.21l1.77 0.65c0.6,0.22 1.17,0.09 1.72,-0.27l7.66 -5.09 13.78 -1.47 12.54 -1.36 -1.65 -16.1z"/>
<path class="fil8" d="M529.89 387.63l2.88 21.03 101.82 -11.29c5.43,-0.6 9.83,-4.15 10.97,-9.49 5.98,-27.87 22.11,-112.58 0.7,-126.38 -8.9,-5.74 -27,17.28 -25.31,35.14 1.7,17.85 -6.52,71.58 -6.52,71.58 0,0 -51.13,10.19 -84.54,19.41z"/>
</g>
<g id="furcan-man-head">
<path class="fil9" d="M631.66 44.44c41.87,18.84 34.62,48.75 34.62,48.75 0,0 -6.04,23 -12.49,50.54 5.19,-4.76 12.52,-5.71 18.96,-1.28 13.66,9.4 -6.85,54.23 -28.74,45.59 -3.62,12.94 -10.88,22.13 -13.28,25.34 -9.07,12.1 -37.3,27.65 -62.8,25.83 -25.5,-1.82 -47.53,-35.73 -45.34,-64.82 1.92,-9.55 5.27,-26.38 8.91,-44.73 0.04,-0.24 -0.1,-0.66 0.14,-0.72l1.94 -0.49c0.43,-8.17 2.23,-16.64 4.81,-24.31l-1.56 -1.43c-0.12,-0.11 0.06,-0.31 0.09,-0.47 5.76,-29.12 10.87,-55 10.87,-55 0,0 14.53,-34 83.87,-2.8z"/>
<path id="furcan-man-eyebrow-right" class="fil11" d="M595.22 103.14c5.53,-7.83 25.48,-10.91 32.47,3.16 1.24,2.49 1.56,6.42 0.93,8.87 -4.59,-3.11 -2.68,-2.9 -9.76,-6.48 -5.18,-2.63 -17.7,-3.92 -23.64,-5.55z"/>
<path id="furcan-man-eyebrow-left" class="fil11" d="M569.09 97.89c-3.54,-0.54 -14.57,-3.54 -17.8,-3.04 -7.79,1.23 -6.24,1.66 -10.64,2.62 -0.54,-12.21 17.84,-18.32 26.26,-5.38l2.18 5.8z"/>
<path class="fil12" d="M652.68 182.06c-0.49,-0.1 -0.97,-0.25 -1.46,-0.46 4.34,-4.26 4.96,-11.27 -0.45,-12.36 -0.33,-0.07 -0.7,-0.11 -1.09,-0.13 2.63,-11.63 10.13,-21.61 16.65,-20.29 0.95,0.18 1.88,0.62 2.77,1.32 7.13,5.61 -4.75,34.27 -16.42,31.92z"/>
<path class="fil11" d="M580.79 219.71c-17.79,-1.82 -11.34,-18.14 -11.34,-18.14l-8.08 -0.33c0,0 0.55,22.82 -17.72,11.43 -18.28,-11.39 -8.79,-28.76 -6.23,-30.82 0,0 14,3.56 26.42,-2.68 0,0 12.01,10.25 31.57,8.34 0,0 11.41,34.87 -14.62,32.2zm-51.54 -167.63c0,0 17.9,47.31 110.81,31.49 -1.67,16.34 9.21,30.32 9.21,30.32l-5.75 28.59 -0.02 -0.14c-0.1,0.64 -0.22,1.24 -0.33,1.86l-2.15 10.71c-9.84,41.8 -29.94,49.63 -36.3,31.05 -6.69,-18.53 -25.11,-17.69 -36.58,-18.54 -34.65,-11.1 -31.98,11.56 -39.81,12.13 -7.82,0.57 -3.58,-15.68 -3.58,-15.68 -5.37,16.24 -5.13,32.46 -3.95,41.69 2.77,21.72 19.03,43.45 39.14,47.02 23.77,4.22 54.26,-13.38 68.87,-31.36 10.58,-13.01 15.14,-28.27 15.2,-33.18 -1,-5.57 0.6,-15.31 1.75,-21.08l7 -20.61c0,0 5.06,-6.01 11.11,-5.67 9.15,-14.53 16.61,-27.73 19.1,-40.11 6.59,-32.75 -13.15,-34.54 -13.15,-34.54 0,0 0.07,-1.15 -0.17,-3.07 -1.79,-30.38 -15.74,-41.88 -32.31,-48.17 -34.01,-12.89 -85.66,12.79 -97.92,1.62 0.65,5.28 8.23,10.23 8.23,10.23 -14.42,-2.9 -13.99,-13.53 -13.99,-13.53 -10.4,17.62 2.79,39.17 11.65,42.2 -10.36,0.01 -16.06,-3.23 -16.06,-3.23z"/>
<path class="fil11" d="M561.01 126.1c0,0 -0.12,-0.54 -0.33,-1.47 -0.22,-0.93 -0.55,-2.24 -1.05,-3.75 -0.53,-1.5 -1.23,-3.23 -2.37,-4.73 -0.29,-0.37 -0.64,-0.69 -0.95,-1.03 -0.4,-0.25 -0.7,-0.61 -1.13,-0.81 -0.4,-0.22 -0.78,-0.48 -1.26,-0.58 -0.43,-0.18 -0.92,-0.27 -1.43,-0.32l-0.61 -0.1 -0.98 -0.02c-0.74,-0.05 -1.07,0.08 -1.5,0.13 -0.87,0.15 -1.81,0.46 -2.57,0.91 -0.73,0.5 -1.46,1.03 -2,1.68 -0.58,0.62 -1.05,1.3 -1.45,1.95 -0.79,1.31 -1.32,2.51 -1.68,3.37 -0.34,0.84 -0.52,1.35 -0.52,1.36 -0.01,-0.01 -0.16,-0.55 -0.25,-1.49 -0.07,-0.96 -0.1,-2.34 0.32,-3.95 0.41,-1.6 1.25,-3.53 3.23,-5.11 1.04,-0.75 2.24,-1.43 3.82,-1.72 0.8,-0.14 1.69,-0.28 2.26,-0.25l0.96 -0.01c0.67,0 0.87,0.08 1.33,0.13 0.79,0.1 1.58,0.28 2.35,0.6 0.79,0.24 1.48,0.66 2.15,1.08 1.33,0.84 2.21,1.96 2.87,3 1.24,2.14 1.54,4.15 1.61,5.8 0.11,3.32 -0.82,5.33 -0.82,5.33zm-19.83 -3.41l0 0 0 0z"/>
<path class="fil11" d="M616.08 138.42c0,0 -0.05,-0.54 -0.14,-1.48 -0.1,-0.93 -0.27,-2.25 -0.58,-3.78 -0.17,-0.76 -0.39,-1.57 -0.66,-2.4 -0.27,-0.83 -0.7,-1.64 -1.15,-2.43 -0.51,-0.75 -1.14,-1.43 -1.89,-1.92 -0.35,-0.26 -0.75,-0.49 -1.21,-0.63 -0.41,-0.22 -0.93,-0.28 -1.42,-0.38l-0.37 -0.09 -0.09 -0.03 -0.01 0 -0.17 -0.01 -0.97 -0.08c-0.75,-0.09 -1,0.06 -1.49,0.05 -0.44,0.02 -0.92,0.2 -1.4,0.26 -0.43,0.17 -0.89,0.29 -1.3,0.51 -0.8,0.43 -1.59,0.91 -2.22,1.51 -0.65,0.57 -1.21,1.21 -1.7,1.81 -0.96,1.22 -1.65,2.36 -2.11,3.17 -0.45,0.8 -0.7,1.29 -0.7,1.31 -0.01,-0.02 -0.09,-0.56 -0.06,-1.5 0.05,-0.95 0.21,-2.3 0.83,-3.86 0.61,-1.55 1.69,-3.37 3.83,-4.77 1.09,-0.68 2.38,-1.26 3.95,-1.47 0.77,-0.07 1.76,-0.2 2.32,-0.13l0.97 0.05 0.24 0.01 0.06 0 0.2 0.02 0.04 0.01 0.74 0.15c0.79,0.17 1.57,0.33 2.31,0.7 0.77,0.29 1.46,0.7 2.09,1.18 1.3,0.91 2.05,2.1 2.63,3.18 1.02,2.21 1.07,4.22 0.93,5.86 -0.31,3.29 -1.5,5.18 -1.5,5.18zm-19.58 -4.61l0 0 0 0z"/>
<path id="furcan-man-mouth" class="fil13" d="M593.37 190.61c0,0 -32.44,27.83 -53.33,-5.35l53.33 5.35z"/>
<path class="fil14" d="M664 140.48l-32.75 -14.48c-1.65,-0.84 -2.98,5.63 -1.73,6.31l29.54 9.33c1.46,-0.64 3.09,-1.06 4.81,-0.96l0.13 -0.2z"/>
<path class="fil14" d="M534.25 104.38c2.48,0.22 5.12,0.5 7.89,0.88 2.67,0.36 5.43,0.79 8.25,1.3 3.05,0.56 6.24,1.21 9.53,1.98 3.05,0.71 6.24,1.53 9.56,2.47 0.83,0.3 1.54,0.79 1.96,1.41 0.36,0.52 0.52,1.14 0.39,1.81 -0.47,2.45 -1.07,5.02 -1.87,7.48 -0.78,2.39 -1.74,4.65 -2.97,6.54 -1.17,1.8 -2.58,3.26 -4.29,4.15 -1.7,0.88 -3.73,1.23 -6.18,0.83 -3.87,-0.62 -7.24,-1.23 -10.57,-1.92 -3.33,-0.68 -6.66,-1.45 -10.48,-2.39 -2.16,-0.54 -3.62,-1.65 -4.57,-3.12 -0.99,-1.54 -1.47,-3.51 -1.63,-5.65 -0.32,-4.3 0.65,-9.3 1.39,-13.1l0.11 -0.6c0.13,-0.64 0.5,-1.12 1.01,-1.46 0.65,-0.42 1.53,-0.63 2.47,-0.61zm8.28 -1.97c-2.85,-0.38 -5.55,-0.68 -8.06,-0.89l-0.11 -0.01c-1.51,-0.04 -2.99,0.32 -4.15,1.08 -1.13,0.74 -1.95,1.83 -2.24,3.27l-0.12 0.63c-0.78,3.98 -1.79,9.2 -1.44,13.87 0.19,2.58 0.8,5.01 2.08,7 1.33,2.06 3.34,3.61 6.3,4.34 3.8,0.94 7.17,1.72 10.58,2.42 3.4,0.7 6.8,1.32 10.69,1.94 3.11,0.5 5.74,0.04 7.96,-1.11 2.2,-1.14 3.96,-2.94 5.39,-5.14 1.37,-2.11 2.43,-4.6 3.28,-7.21 0.83,-2.55 1.45,-5.24 1.95,-7.82 0.3,-1.49 -0.05,-2.85 -0.83,-3.98 -0.77,-1.12 -1.98,-2 -3.37,-2.5l-0.17 -0.06c-3.27,-0.92 -6.52,-1.76 -9.71,-2.5 -3.32,-0.77 -6.55,-1.43 -9.65,-2 -2.95,-0.53 -5.75,-0.97 -8.38,-1.33z"/>
<path class="fil14" d="M627.8 119.03c-2.46,-0.73 -5.09,-1.45 -7.88,-2.12 -2.66,-0.65 -5.49,-1.27 -8.47,-1.84 -3.18,-0.62 -6.49,-1.18 -9.92,-1.67 -3.26,-0.46 -6.67,-0.87 -10.19,-1.21l-0.15 -0.01c-1.52,-0.05 -2.99,0.32 -4.16,1.08 -1.16,0.77 -2.02,1.9 -2.31,3.4 -0.52,2.59 -0.96,5.33 -1.15,8.04 -0.2,2.76 -0.15,5.49 0.34,7.99 0.51,2.6 1.47,4.96 3.09,6.88 1.64,1.94 3.93,3.41 7.04,4.16 3.9,0.95 7.34,1.72 10.82,2.41 3.49,0.69 6.97,1.29 10.93,1.92 3.08,0.48 5.59,-0.22 7.65,-1.68 1.98,-1.41 3.5,-3.52 4.69,-5.96 2.13,-4.37 3.22,-9.8 4.05,-13.96l0.15 -0.73c0.31,-1.51 -0.04,-2.88 -0.82,-4.03 -0.81,-1.18 -2.06,-2.09 -3.51,-2.62l-0.2 -0.05zm-8.56 0.66c2.77,0.67 5.35,1.37 7.75,2.08l0.03 0.02c0.9,0.32 1.66,0.85 2.11,1.52 0.36,0.53 0.52,1.16 0.38,1.86l-0.14 0.73c-0.8,4 -1.84,9.21 -3.82,13.27 -0.99,2.03 -2.22,3.76 -3.77,4.87 -1.47,1.04 -3.29,1.54 -5.53,1.18 -3.97,-0.62 -7.42,-1.22 -10.82,-1.89 -3.41,-0.67 -6.82,-1.44 -10.71,-2.38 -2.47,-0.6 -4.26,-1.74 -5.52,-3.23 -1.28,-1.52 -2.06,-3.44 -2.47,-5.58 -0.44,-2.23 -0.48,-4.71 -0.3,-7.23 0.18,-2.57 0.6,-5.19 1.09,-7.66l0.01 -0.03c0.13,-0.68 0.53,-1.2 1.07,-1.56 0.67,-0.43 1.55,-0.64 2.48,-0.61 3.46,0.33 6.82,0.73 10.04,1.19 3.44,0.5 6.7,1.04 9.77,1.64 2.91,0.56 5.7,1.17 8.35,1.81z"/>
<path class="fil15" d="M578.15 113.51c-7.35,13.7 -13.53,29.08 -20.48,43.23 3.73,3.33 7.51,6.65 11.04,10.18 -4.53,-3.02 -9.36,-6.79 -13.73,-10.04 5.14,-13.56 13.9,-31.98 23.17,-43.37z"/>
<path class="fil14" d="M584.35 120.35c0.63,0.48 1.62,-0.08 2.09,-0.71 0.47,-0.64 0.51,-2.38 -0.13,-2.85 -2.15,-1.61 -4.53,-2.68 -6.88,-3.15 -2.4,-0.48 -4.79,-0.35 -6.9,0.46 -0.74,0.29 -1.28,1.96 -1,2.7 0.29,0.74 1.03,1.53 1.78,1.25 1.59,-0.62 3.42,-0.71 5.3,-0.33 1.95,0.39 3.94,1.29 5.74,2.63z"/>
</g>
<g>
<path class="fil0" d="M201.06 445.9l-18.18 212.34c-0.22,2.6 -2.39,4.58 -5,4.58l-2.01 0c-1.46,0 -2.71,-0.55 -3.7,-1.62 -0.98,-1.07 -1.42,-2.37 -1.3,-3.82l18.2 -212.47 11.99 0.99z"/>
<path class="fil1" d="M707.9 445.03l15.07 230.71c0.09,1.44 -0.36,2.71 -1.35,3.76 -0.98,1.05 -2.22,1.59 -3.66,1.59l-1.99 0c-2.65,0 -4.83,-2.05 -5,-4.69l-15.06 -230.62 11.99 -0.75z"/>
<path class="fil0" d="M741.64 444.79l22.21 212.5c0.15,1.46 -0.27,2.78 -1.26,3.88 -0.99,1.09 -2.26,1.65 -3.73,1.65l-1.99 0c-2.57,0 -4.72,-1.93 -4.99,-4.49l-22.19 -212.31 11.95 -1.23z"/>
<path class="fil1" d="M167.28 446.14l-28.79 230.55c-0.32,2.53 -2.44,4.4 -4.98,4.4l-2.02 0c-1.49,0 -2.77,-0.58 -3.76,-1.7 -0.99,-1.12 -1.4,-2.46 -1.22,-3.94l28.82 -230.77 11.95 1.46z"/>
<path class="fil16" d="M676.98 427.91l173.02 2.5 0 12.18c0,9.84 -179.09,17.82 -400,17.82 -220.91,0 -400,-7.98 -400,-17.82l0 -12.18 166.98 -2.31c152.6,-4.88 307.38,-4.88 460,-0.19z"/>
<ellipse class="fil17" cx="450" cy="430.41" rx="400" ry="15"/>
</g>
<g>
<g>
<g>
<polygon class="fil18" points="746.23,406.89 747.72,406.89 748.32,379.49 747.72,361.24 746.23,361.24 "/>
<polygon class="fil19" points="747.72,406.89 749.21,406.89 749.21,361.24 747.72,361.24 "/>
<g>
<path class="fil20" d="M757.75 360.69l0 0c-0.98,-0.54 -0.98,-1.95 0,-2.5l0 0c1.3,-0.72 0.77,-2.7 -0.72,-2.68 -1.12,0.02 -1.83,-1.2 -1.25,-2.16 0.77,-1.28 -0.69,-2.73 -1.96,-1.97 -0.96,0.58 -2.19,-0.12 -2.17,-1.24 0.03,-1.49 -1.96,-2.02 -2.68,-0.72 -0.27,0.49 -0.76,0.73 -1.25,0.73l-1.49 12.95 1.49 5.64c0.49,0 0.98,0.24 1.25,0.73 0.72,1.3 2.71,0.77 2.68,-0.72 -0.02,-1.12 1.21,-1.82 2.17,-1.25 1.27,0.77 2.73,-0.68 1.96,-1.96 -0.58,-0.96 0.13,-2.18 1.25,-2.17 1.49,0.03 2.02,-1.95 0.72,-2.68z"/>
<path class="fil21" d="M737.69 360.69c0.99,-0.54 0.99,-1.95 0,-2.5 -1.3,-0.72 -0.77,-2.7 0.72,-2.68 1.13,0.02 1.83,-1.2 1.25,-2.16 -0.76,-1.28 0.69,-2.73 1.97,-1.97 0.96,0.58 2.18,-0.12 2.16,-1.24 -0.02,-1.49 1.96,-2.02 2.68,-0.72 0.27,0.49 0.76,0.73 1.25,0.73l0 18.59c-0.49,0 -0.98,0.24 -1.25,0.73 -0.72,1.3 -2.7,0.77 -2.68,-0.72 0.02,-1.12 -1.2,-1.82 -2.16,-1.25 -1.28,0.77 -2.73,-0.68 -1.97,-1.96 0.58,-0.96 -0.12,-2.18 -1.25,-2.17 -1.49,0.03 -2.02,-1.95 -0.72,-2.68z"/>
</g>
</g>
<g>
<path class="fil18" d="M747.03 388.64l0.69 -2.21c0,0 -6.95,-14.52 -18.44,-11.46 -11.5,3.06 -9.37,15.58 -2.71,13.93 6.66,-1.64 9.76,-5.94 13.58,-5.05 3.82,0.88 6.88,4.79 6.88,4.79z"/>
<path class="fil19" d="M748.42 388.64l-0.7 -2.21c0,0 6.96,-14.52 18.45,-11.46 11.49,3.06 9.36,15.58 2.71,13.93 -6.66,-1.64 -9.77,-5.94 -13.58,-5.05 -3.82,0.88 -6.88,4.79 -6.88,4.79z"/>
</g>
</g>
<path class="fil22" d="M773.46 395.13l-49.41 0c-0.73,0 -1.37,0.31 -1.83,0.89 -0.46,0.57 -0.61,1.26 -0.45,1.98l7.2 31.4c0.59,2.54 2.66,4.33 5.26,4.53 10.33,0.8 19.77,0.75 28.51,0.03 2.54,-0.21 4.58,-1.95 5.19,-4.43l7.8 -31.49c0.18,-0.72 0.03,-1.42 -0.43,-2.01 -0.45,-0.58 -1.09,-0.9 -1.84,-0.9z"/>
</g>
<g>
<rect id="furcan-man-keyboard" class="fil16" x="353.18" y="411.34" width="163.9" height="9.42" rx="6.24" ry="4.71"/>
<g>

<path id="shadow-dplct" filter="url(#furcan-man-screen-shadow)" class="furcan-man-lights" d="M488.36 402.18l-150.56 -6.87c-6.5,-0.29 -11.77,-4.88 -12.97,-11.28l-28.15 -151.06c-0.78,-4.14 0.22,-8.02 2.89,-11.28 2.67,-3.27 6.27,-5.01 10.48,-5.08l155.06 -2.45c6.99,-0.11 12.88,4.9 13.9,11.81l23.66 160.38c0.62,4.23 -0.56,8.12 -3.42,11.29 -2.87,3.17 -6.62,4.74 -10.89,4.54z"/>

<path id="furcan-man-screen" class="fil23" d="M488.36 402.18l-150.56 -6.87c-6.5,-0.29 -11.77,-4.88 -12.97,-11.28l-28.15 -151.06c-0.78,-4.14 0.22,-8.02 2.89,-11.28 2.67,-3.27 6.27,-5.01 10.48,-5.08l155.06 -2.45c6.99,-0.11 12.88,4.9 13.9,11.81l23.66 160.38c0.62,4.23 -0.56,8.12 -3.42,11.29 -2.87,3.17 -6.62,4.74 -10.89,4.54z"/>

<path class="fil24" d="M482.39 402.18l-150.56 -6.87c-6.5,-0.29 -11.78,-4.88 -12.97,-11.28l-28.15 -151.06c-0.78,-4.14 0.22,-8.02 2.89,-11.28 2.66,-3.27 6.27,-5.01 10.48,-5.08l155.06 -2.45c6.99,-0.11 12.88,4.9 13.9,11.81l23.66 160.38c0.62,4.23 -0.56,8.12 -3.42,11.29 -2.87,3.17 -6.62,4.74 -10.89,4.54z"/>
<path class="fil25" d="M407.37 428.47l-32.66 0 4 -74.17 18.28 -12.95c15.37,0 17.41,10.31 17.17,16.31l-1.52 66.72 17.65 0 -22.92 4.09z"/>
<path class="fil26" d="M407.04 436.86l23.74 -4.24c1.11,-0.2 1.94,-1.14 1.99,-2.27l0.14 -3.7c0.03,-0.71 -0.23,-1.32 -0.75,-1.77 -0.53,-0.46 -1.17,-0.63 -1.87,-0.5l-22.92 4.09 2.9 -73.3c0.3,-7.61 -5.66,-13.82 -13.28,-13.82l-10.17 0c-7.61,0 -14.07,6.21 -14.37,13.82l-3.14 79.38c-0.05,1.27 0.94,2.31 2.21,2.31l35.52 0z"/>
<g>
<path class="fil27" d="M402.41 283.05c2.86,8.33 -0.36,16.93 -7.2,19.2 -6.84,2.27 -14.7,-2.64 -17.56,-10.97 -2.86,-8.34 0.36,-16.94 7.2,-19.21 6.84,-2.27 14.7,2.64 17.56,10.98z"/>
<path class="fil28" d="M394.07 287.91c-1.33,-1.43 -2.67,-2.85 -4.02,-4.28 -0.1,-0.1 -0.16,-0.23 -0.17,-0.36 -0.03,-0.16 0.02,-0.32 0.13,-0.43 0.11,-0.11 0.25,-0.16 0.42,-0.16 0.2,0 0.39,0.1 0.53,0.26 1.25,1.33 2.5,2.66 3.74,3.99 0.86,-1.3 1.73,-2.62 2.61,-3.93 0,0 0,-0.01 0.01,-0.01 0.11,-0.14 0.26,-0.24 0.47,-0.24 0.16,0 0.32,0.05 0.45,0.16 0.12,0.11 0.19,0.23 0.21,0.38 0.02,0.13 -0.02,0.26 -0.09,0.36 0,0 0,0 0,0 -0.94,1.42 -1.86,2.83 -2.78,4.24 1.3,1.41 2.59,2.82 3.88,4.23 0.1,0.1 0.16,0.22 0.18,0.35 0.02,0.16 -0.02,0.29 -0.11,0.41 -0.1,0.11 -0.24,0.17 -0.4,0.17 -0.2,0 -0.38,-0.11 -0.53,-0.25 -0.01,0 -0.01,0 -0.01,-0.01 -1.21,-1.31 -2.43,-2.63 -3.65,-3.95 -0.87,1.3 -1.74,2.6 -2.6,3.9 -0.09,0.15 -0.25,0.22 -0.45,0.22 -0.15,0 -0.3,-0.05 -0.43,-0.15 -0.14,-0.11 -0.21,-0.26 -0.24,-0.42 -0.01,-0.12 0.01,-0.25 0.08,-0.35 0.92,-1.37 1.84,-2.75 2.77,-4.13zm-8.96 3.1c0.66,0.01 1.27,0.54 1.37,1.19 0.1,0.65 -0.35,1.17 -1,1.17 -0.65,-0.01 -1.27,-0.55 -1.37,-1.2 -0.1,-0.64 0.35,-1.16 1,-1.16zm-0.83 -8.56c1.1,0.01 2.2,0.3 3.06,1.14 0.82,0.81 1.22,1.81 1.38,2.86 0.29,2.02 0.59,4.05 0.89,6.07 0.02,0.16 -0.02,0.3 -0.12,0.42 -0.1,0.11 -0.24,0.17 -0.4,0.17 -0.17,0 -0.33,-0.06 -0.47,-0.19 -0.12,-0.11 -0.2,-0.26 -0.23,-0.42 -0.29,-1.99 -0.59,-3.99 -0.89,-5.99 -0.11,-0.75 -0.4,-1.49 -0.98,-2.09 -0.59,-0.6 -1.37,-0.8 -2.14,-0.81 -0.27,0 -0.54,0 -0.81,-0.01 -0.77,0 -1.49,0.17 -1.9,0.77 -0.4,0.59 -0.46,1.32 -0.34,2.07 0.32,2 0.64,4 0.96,5.99 0.02,0.16 -0.01,0.3 -0.1,0.41 -0.1,0.13 -0.24,0.19 -0.41,0.19 -0.17,0 -0.33,-0.07 -0.46,-0.19 -0.13,-0.11 -0.22,-0.26 -0.25,-0.42 -0.33,-2.02 -0.65,-4.04 -0.98,-6.07 -0.17,-1.04 -0.07,-2.03 0.51,-2.83 0.6,-0.82 1.61,-1.09 2.71,-1.08 0.32,0.01 0.65,0.01 0.97,0.01z"/>
</g>
</g>
</g>
<g id="furcan-man-ball-right">
<path class="fil29" d="M245.42 375.48c-0.06,-0.21 0.06,-0.43 0.27,-0.48 0.21,-0.06 0.42,0.06 0.48,0.27l7.77 28.25 6.77 -28.5c0.05,-0.21 0.26,-0.34 0.47,-0.29 0.21,0.05 0.34,0.26 0.29,0.47l-7.13 29.98c-0.03,0.14 -0.13,0.25 -0.27,0.29 -0.21,0.06 -0.43,-0.07 -0.48,-0.27l-8.17 -29.72z"/>
<path class="fil30" d="M253.96 405.09c3.71,-0.06 6.77,2.89 6.84,6.6 0.06,3.71 -2.89,6.77 -6.6,6.84 -3.71,0.06 -6.77,-2.89 -6.84,-6.6 -0.06,-3.71 2.89,-6.77 6.6,-6.84z"/>
</g>
<g>
<path class="fil31" d="M240.54 404.81c3.71,-0.07 6.77,2.89 6.83,6.6 0.07,3.71 -2.89,6.77 -6.6,6.83 -3.71,0.07 -6.77,-2.89 -6.83,-6.6 -0.07,-3.71 2.89,-6.77 6.6,-6.83z"/>
<path class="fil29" d="M231.99 375.19c-0.06,-0.21 0.07,-0.42 0.27,-0.48 0.21,-0.05 0.43,0.07 0.48,0.28l7.77 28.25 6.77 -28.51c0.05,-0.21 0.26,-0.34 0.47,-0.29 0.21,0.05 0.34,0.26 0.29,0.47l-7.12 29.99c-0.04,0.13 -0.14,0.25 -0.28,0.28 -0.21,0.06 -0.42,-0.06 -0.48,-0.27l-8.17 -29.72z"/>
</g>
<g>
<path class="fil32" d="M227.11 404.52c3.71,-0.06 6.77,2.89 6.84,6.6 0.06,3.71 -2.89,6.78 -6.6,6.84 -3.71,0.06 -6.78,-2.89 -6.84,-6.6 -0.06,-3.71 2.89,-6.77 6.6,-6.84z"/>
<path class="fil29" d="M218.56 374.91c-0.05,-0.21 0.07,-0.43 0.28,-0.48 0.21,-0.06 0.42,0.06 0.48,0.27l7.76 28.25 6.78 -28.5c0.05,-0.21 0.26,-0.34 0.47,-0.29 0.21,0.05 0.34,0.26 0.29,0.47l-7.13 29.98c-0.03,0.14 -0.13,0.25 -0.28,0.29 -0.2,0.06 -0.42,-0.07 -0.48,-0.27l-8.17 -29.72z"/>
</g>
<g>
<path class="fil33" d="M213.69 404.24c3.71,-0.07 6.77,2.89 6.83,6.6 0.07,3.71 -2.89,6.77 -6.6,6.83 -3.71,0.07 -6.77,-2.89 -6.84,-6.6 -0.06,-3.71 2.9,-6.77 6.61,-6.83z"/>
<path class="fil29" d="M205.14 374.62c-0.06,-0.2 0.07,-0.42 0.27,-0.48 0.21,-0.05 0.43,0.07 0.48,0.28l7.77 28.25 6.77 -28.51c0.05,-0.21 0.26,-0.34 0.47,-0.29 0.21,0.05 0.34,0.26 0.29,0.47l-7.13 29.99c-0.03,0.13 -0.13,0.25 -0.27,0.28 -0.21,0.06 -0.42,-0.06 -0.48,-0.27l-8.17 -29.72z"/>
</g>
<g id="furcan-man-ball-left">
<path class="fil34" d="M200.26 403.95c3.71,-0.06 6.77,2.89 6.84,6.6 0.06,3.71 -2.9,6.78 -6.6,6.84 -3.72,0.06 -6.78,-2.89 -6.84,-6.6 -0.07,-3.71 2.89,-6.77 6.6,-6.84z"/>
<path class="fil29" d="M191.71 374.34c-0.05,-0.21 0.07,-0.42 0.28,-0.48 0.21,-0.06 0.42,0.06 0.48,0.27l7.76 28.25 6.78 -28.5c0.05,-0.21 0.26,-0.34 0.47,-0.29 0.21,0.05 0.34,0.26 0.29,0.47l-7.13 29.98c-0.03,0.14 -0.13,0.25 -0.28,0.29 -0.2,0.06 -0.42,-0.06 -0.48,-0.27l-8.17 -29.72z"/>
</g>
<g>
<g>
<path class="fil35" d="M79.98 429.08c0,2.49 15.24,4.52 34.04,4.52 18.8,0 34.05,-2.03 34.05,-4.52l0 -5.66 -68.09 0 0 5.66z"/>
<ellipse class="fil36" cx="114.02" cy="423.42" rx="34.05" ry="4.52"/>
<g>
<path class="fil35" d="M105.31 422.64c0,0.83 3.7,1.5 8.26,1.5 4.55,0 8.25,-0.67 8.25,-1.5l0 -3.77 -16.51 0 0 3.77z"/>
<ellipse class="fil36" cx="113.57" cy="418.87" rx="8.25" ry="1.5"/>
</g>
</g>
<g>
<path class="fil37" d="M111.09 418.05l-31.73 -125.71c-0.27,-1.09 0.22,-2.2 1.14,-2.75l79.74 -51.36c1.17,-0.75 2.72,-0.41 3.46,0.75 0.75,1.17 0.41,2.72 -0.75,3.46l-61.29 39.48 -0.04 0.11 -12.05 30.3 26.61 105.61c0.15,0.61 -0.07,0.89 -0.7,0.93 -1.08,0.06 -2.49,0.04 -3.53,-0.07 -0.42,-0.05 -0.76,-0.34 -0.86,-0.75zm-15.21 -132.41l-11.22 7.23 3.24 12.84 7.98 -20.07z"/>

<!-- <path id="furcan-man-lamp-shdow" filter="url(#furcan-man-lamp-shadow)" class="light" d="M162.18 233.71c4.88,-4.26 11.67,-5.38 18.88,-4.41 7.29,0.99 15.05,4.13 21.58,8.3 3.18,2.03 6.1,4.34 8.56,6.79 0.67,0.6 1,1.54 0.77,2.47 -1.66,6.72 -4.38,12.99 -8.12,18.81 -3.72,5.79 -8.45,11.14 -14.13,16.08 -0.66,0.57 -1.61,0.78 -2.5,0.46 -3.22,-1.18 -6.53,-2.85 -9.73,-4.87l-0.17 -0.11c-6.53,-4.16 -12.64,-9.88 -16.6,-16.08 -3.91,-6.13 -5.75,-12.77 -3.94,-18.98l-4.35 -2.78c-2.34,-1.49 -3.02,-4.6 -1.53,-6.93 1.49,-2.33 4.59,-3.02 6.93,-1.53l4.35 2.78z"/> -->

<path id="furcan-man-lamp" class="fil37" d="M162.18 233.71c4.88,-4.26 11.67,-5.38 18.88,-4.41 7.29,0.99 15.05,4.13 21.58,8.3 3.18,2.03 6.1,4.34 8.56,6.79 0.67,0.6 1,1.54 0.77,2.47 -1.66,6.72 -4.38,12.99 -8.12,18.81 -3.72,5.79 -8.45,11.14 -14.13,16.08 -0.66,0.57 -1.61,0.78 -2.5,0.46 -3.22,-1.18 -6.53,-2.85 -9.73,-4.87l-0.17 -0.11c-6.53,-4.16 -12.64,-9.88 -16.6,-16.08 -3.91,-6.13 -5.75,-12.77 -3.94,-18.98l-4.35 -2.78c-2.34,-1.49 -3.02,-4.6 -1.53,-6.93 1.49,-2.33 4.59,-3.02 6.93,-1.53l4.35 2.78z"/>
</g>
</g>
<g>
<g>
<path class="fil35" d="M154.89 427.47l144.48 -6.16c0.62,-0.03 1.17,0.17 1.63,0.6 0.45,0.43 0.69,0.97 0.7,1.59l0.07 4.04c0.02,1.03 -0.63,1.9 -1.61,2.19l-29.75 8.63c-1.17,0.34 -2.22,0.48 -3.43,0.44l-111.99 -3.14c-1.2,-0.03 -2.16,-1 -2.18,-2.2l-0.06 -3.72c-0.02,-1.21 0.93,-2.22 2.14,-2.27z"/>
<path class="fil36" d="M185.78 417.96l113.88 3.35c0.71,0.02 1.37,0.49 1.7,1.03 -0.65,-0.4 -1.43,-0.63 -2.25,-0.39l-28.84 8.37c-1.17,0.34 -2.22,0.47 -3.43,0.44l-111.95 -3.17c-0.63,-0.01 -1.2,0.33 -1.69,0.77 0.25,-0.35 0.58,-0.63 1.03,-0.77l31.55 -9.63z"/>
</g>
<g>
<path class="fil38" d="M187.67 421.79l-0.78 -44.93c-0.01,-0.75 0.12,-1.47 0.39,-2.15 0.27,-0.67 0.67,-1.28 1.2,-1.81 0.54,-0.54 1.14,-0.95 1.81,-1.22 0.66,-0.28 1.37,-0.41 2.13,-0.4l82.36 0.79c1.49,0.02 2.84,0.62 3.82,1.59 0.98,0.98 1.6,2.32 1.62,3.8l0.82 46.8c-0.87,0.31 -2.15,0.38 -3.14,0.05l-0.81 -46.8c-0.01,-0.64 -0.28,-1.21 -0.69,-1.63 -0.43,-0.42 -1,-0.68 -1.64,-0.68l-82.36 -0.8c-0.33,0 -0.64,0.06 -0.92,0.17 -0.28,0.11 -0.54,0.29 -0.78,0.53 -0.24,0.24 -0.41,0.5 -0.52,0.78 -0.11,0.26 -0.16,0.57 -0.16,0.92l0.79 44.93c-0.94,0.43 -2.08,0.64 -3.14,0.06z"/>
<path class="fil38" d="M175.55 424.91l-0.79 -45.19c-0.02,-0.75 0.11,-1.46 0.39,-2.14 0.26,-0.67 0.67,-1.28 1.2,-1.81 0.54,-0.55 1.14,-0.95 1.8,-1.23 0.67,-0.27 1.38,-0.4 2.14,-0.39l82.36 0.79c1.49,0.01 2.84,0.62 3.82,1.59 0.98,0.97 1.59,2.31 1.62,3.8l0.82 47.14c-0.92,0.3 -2.47,0.33 -3.13,-0.03l-0.82 -47.06c-0.01,-0.64 -0.28,-1.22 -0.7,-1.63 -0.42,-0.42 -1,-0.68 -1.63,-0.69l-82.36 -0.79c-0.33,0 -0.65,0.05 -0.93,0.17 -0.27,0.11 -0.53,0.29 -0.77,0.53 -0.24,0.24 -0.41,0.5 -0.53,0.77 -0.1,0.27 -0.15,0.58 -0.15,0.93l0.79 45.33c-0.99,0.48 -2.54,0.56 -3.13,-0.09z"/>
</g>
</g>
</g>
</g>
</svg>
