<?xml version="1.0" standalone="no"?>
<!DOCTYPE svg PUBLIC "-//W3C//DTD SVG 20010904//EN"
 "http://www.w3.org/TR/2001/REC-SVG-20010904/DTD/svg10.dtd">
<svg version="1.0" xmlns="http://www.w3.org/2000/svg"
 width="900.000000pt" height="1329.000000pt" viewBox="0 0 900.000000 1329.000000"
 preserveAspectRatio="xMidYMid meet">
<metadata>
Created by potrace 1.10, written by Peter Selinger 2001-2011
</metadata>
<g transform="translate(0.000000,1329.000000) scale(0.100000,-0.100000)"
fill="#000000" stroke="none">
<path d="M4990 13235 c-7 -8 -16 -15 -20 -15 -19 0 -119 -74 -173 -127 -63
-63 -103 -125 -139 -218 -20 -53 -23 -78 -23 -210 0 -121 4 -163 20 -215 26
-88 95 -222 195 -380 25 -39 50 -79 55 -88 6 -9 36 -55 66 -102 105 -160 122
-186 161 -258 14 -26 35 -64 46 -84 68 -121 154 -388 132 -411 -4 -5 -29 3
-54 17 -86 48 -154 66 -247 66 -82 0 -139 -11 -166 -32 -13 -10 -11 -14 38
-98 12 -19 33 -57 48 -83 41 -75 44 -80 84 -134 54 -73 124 -122 250 -172 15
-6 31 -19 34 -28 4 -9 -1 -87 -10 -172 -33 -296 -22 -551 31 -766 22 -92 22
-376 -2 -517 -9 -54 -16 -124 -16 -155 1 -176 -56 -511 -106 -631 -8 -18 -14
-37 -14 -43 0 -19 -96 -204 -139 -269 -23 -34 -41 -64 -41 -66 0 -10 -245
-330 -319 -419 -183 -216 -363 -367 -580 -487 -23 -13 -68 -37 -99 -55 -31
-17 -93 -50 -137 -72 -44 -23 -109 -58 -145 -77 -36 -20 -85 -47 -110 -61 -25
-13 -58 -33 -75 -44 -16 -10 -36 -22 -44 -26 -8 -3 -81 -51 -162 -105 -159
-105 -252 -155 -339 -181 -98 -28 -179 -47 -206 -47 -15 0 -63 -7 -108 -15
-44 -8 -126 -22 -181 -30 -479 -76 -678 -168 -1006 -467 -96 -87 -97 -88 -149
-88 -55 0 -144 21 -193 46 -16 8 -32 14 -37 14 -24 0 -135 79 -206 147 -101
97 -151 174 -207 318 -44 111 -77 284 -77 400 0 46 -4 86 -8 89 -11 7 -66 -51
-123 -129 -55 -76 -61 -85 -102 -170 -116 -236 -127 -386 -39 -529 82 -132
396 -359 607 -439 46 -17 166 -45 210 -49 27 -3 30 -6 27 -33 -1 -16 -9 -50
-17 -75 -29 -93 -43 -169 -55 -290 -11 -107 -10 -143 4 -250 9 -69 21 -163 27
-210 10 -87 30 -199 54 -305 14 -65 37 -170 59 -280 25 -123 40 -248 39 -330
-1 -80 -24 -230 -41 -276 -6 -13 -18 -44 -28 -69 -49 -124 -175 -291 -419
-555 -51 -55 -110 -120 -131 -146 -22 -25 -52 -58 -68 -75 -28 -30 -132 -164
-153 -199 -58 -95 -79 -190 -69 -318 27 -356 32 -647 17 -927 -7 -124 -14
-170 -35 -233 -14 -43 -26 -84 -26 -92 0 -34 -58 -134 -105 -181 -46 -46 -166
-134 -184 -134 -4 0 -18 -11 -31 -25 -23 -25 -24 -28 -28 -295 -3 -149 -2
-270 2 -270 7 0 122 55 151 73 55 33 112 82 235 201 75 72 168 159 207 193 65
57 118 125 155 198 38 75 45 93 61 145 32 109 46 177 61 295 17 133 47 585 46
710 0 207 128 407 461 721 124 117 574 468 779 608 30 20 93 64 140 97 47 33
103 72 125 87 111 74 357 264 407 315 32 32 86 102 120 155 82 126 83 128 113
187 95 185 153 289 193 350 88 134 213 239 413 349 29 15 60 32 68 36 26 14
122 56 181 80 30 12 70 28 88 36 18 8 39 14 47 14 8 0 29 6 47 14 52 22 149
49 316 90 31 8 80 20 107 26 28 7 70 16 95 20 25 4 70 13 100 19 72 16 174 36
278 56 45 8 119 22 165 30 45 9 110 22 144 30 34 8 71 15 84 15 12 0 45 6 73
14 28 8 87 22 131 31 75 17 122 28 240 60 86 23 169 47 205 60 19 7 51 18 70
24 19 7 49 17 65 21 39 11 111 38 133 49 9 5 42 19 72 31 48 19 268 125 310
150 8 4 49 28 90 52 117 68 137 78 154 78 8 0 30 6 48 14 18 8 62 22 98 32 36
9 97 28 135 41 39 14 79 27 90 30 11 3 43 21 70 39 58 38 82 58 355 293 144
125 227 190 300 237 102 65 223 124 255 124 29 0 29 11 0 -155 -19 -110 -35
-302 -45 -545 -13 -302 -25 -330 -191 -469 -124 -103 -139 -124 -139 -200 0
-33 5 -72 12 -88 6 -15 14 -98 17 -183 6 -153 6 -155 29 -158 32 -5 49 12 170
173 172 228 287 357 429 482 95 84 93 73 93 496 1 289 4 370 15 402 8 22 15
48 15 57 0 10 7 34 17 55 27 64 143 296 165 333 35 59 85 163 92 193 3 15 13
27 21 27 12 0 15 16 15 80 0 62 -3 80 -14 80 -8 0 -19 12 -25 28 -12 30 -116
179 -145 208 -24 24 -92 54 -120 54 -20 0 -123 -26 -191 -48 -16 -5 -59 -17
-95 -27 -36 -9 -90 -23 -120 -32 -30 -8 -80 -21 -110 -30 -30 -8 -75 -20 -100
-28 -25 -7 -74 -20 -110 -30 -36 -9 -81 -23 -100 -30 -19 -7 -60 -20 -90 -29
-30 -9 -91 -28 -135 -42 -44 -14 -93 -30 -110 -34 -16 -5 -57 -18 -89 -30 -65
-22 -76 -18 -76 29 0 13 -6 47 -14 75 -8 28 -21 85 -30 126 -9 41 -23 98 -31
125 -8 28 -21 79 -30 115 -9 36 -23 80 -31 98 -8 18 -14 39 -14 47 0 8 -7 31
-16 52 -9 21 -22 52 -29 68 -17 39 -113 234 -128 260 -7 11 -30 47 -52 80 -48
73 -44 67 -126 202 -36 59 -73 126 -82 148 -27 66 -37 155 -27 262 48 531 48
724 -2 1088 -12 94 -4 120 57 174 91 80 177 110 388 136 54 7 127 46 200 107
48 40 136 78 180 78 61 0 117 85 117 178 0 50 -5 65 -32 103 -17 24 -39 50
-47 57 -67 55 -196 118 -321 157 -30 10 -71 23 -90 30 -35 13 -96 29 -160 44
-19 5 -71 18 -115 31 -167 46 -191 53 -225 60 -19 5 -53 13 -75 18 -145 36
-316 58 -565 72 -242 14 -325 39 -450 135 -105 81 -170 176 -170 250 0 48 53
113 110 136 58 23 206 25 315 3 120 -23 442 -24 515 -1 200 64 327 191 394
392 17 54 21 105 7 105 -4 0 -20 -18 -34 -39 -67 -101 -216 -236 -317 -287
-62 -31 -173 -64 -215 -64 -55 0 -136 35 -156 67 -18 29 -18 31 2 89 12 32 24
64 27 69 4 6 14 33 24 60 19 54 25 248 9 274 -12 19 -31 5 -31 -24 0 -29 -23
-119 -42 -160 -34 -79 -118 -164 -203 -207 -83 -43 -114 -50 -213 -51 -86 0
-105 3 -136 22 -124 77 -152 312 -69 601 20 71 73 200 90 221 7 8 13 19 13 23
0 17 124 168 146 178 29 13 61 58 42 58 -29 -1 -125 -29 -158 -46 -42 -21
-130 -108 -153 -149 -36 -67 -65 -140 -98 -245 -12 -36 -27 -83 -35 -105 -8
-23 -14 -48 -14 -57 0 -17 -16 -60 -48 -126 -18 -38 -68 -72 -106 -72 -36 0
-101 34 -142 74 -19 18 -34 36 -34 39 0 3 -13 25 -28 49 -26 39 -39 66 -71
138 -38 87 -52 162 -52 286 0 140 8 176 70 303 24 50 60 100 111 154 41 43 77
83 78 88 6 15 -45 10 -58 -6z"/>
</g>
</svg>
