<?xml version="1.0" standalone="no"?>
<!DOCTYPE svg PUBLIC "-//W3C//DTD SVG 20010904//EN"
 "http://www.w3.org/TR/2001/REC-SVG-20010904/DTD/svg10.dtd">
<svg version="1.0" xmlns="http://www.w3.org/2000/svg"
 width="570.000000pt" height="570.000000pt" viewBox="0 0 570.000000 570.000000"
 preserveAspectRatio="xMidYMid meet">
<metadata>
Created by potrace 1.16, written by Peter Selinger 2001-2019
</metadata>
<g transform="translate(0.000000,570.000000) scale(0.100000,-0.100000)"
fill="#000000" stroke="none">
<path d="M2376 4565 c-87 -67 -123 -87 -153 -84 -38 4 -48 -4 -51 -43 -1 -18
-16 -58 -32 -88 -40 -76 -84 -199 -105 -292 -23 -104 -19 -293 7 -312 10 -7
15 -16 11 -19 -3 -4 -1 -7 5 -7 7 0 12 -6 12 -13 0 -15 112 -122 127 -122 5 0
17 -8 27 -18 21 -21 196 -109 196 -99 0 4 4 2 8 -3 4 -6 27 -23 52 -37 59 -35
150 -116 150 -134 0 -21 -43 -17 -84 7 -20 12 -36 24 -36 28 0 9 -97 65 -135
79 -16 5 -63 20 -104 33 -70 21 -74 21 -86 5 -9 -12 -11 -27 -4 -49 5 -18 9
-52 9 -76 0 -48 42 -148 66 -158 7 -3 14 -11 14 -17 0 -7 11 -19 25 -26 14 -7
25 -17 25 -22 0 -5 5 -6 10 -3 6 3 10 1 10 -4 0 -6 9 -11 20 -11 11 0 20 -4
20 -9 0 -10 56 -32 62 -25 8 8 49 -44 50 -62 0 -11 -7 -66 -16 -124 -25 -166
-40 -469 -30 -593 l10 -108 -29 -27 c-15 -14 -42 -49 -60 -76 -31 -49 -32 -54
-32 -156 0 -58 3 -116 7 -130 4 -14 10 -38 13 -55 3 -16 11 -35 17 -42 6 -7 8
-13 5 -13 -9 0 32 -93 44 -101 6 -3 11 -12 13 -20 3 -22 58 -119 68 -119 4 0
8 -7 8 -15 0 -8 9 -24 20 -35 11 -11 17 -20 13 -20 -5 0 1 -7 11 -15 11 -8 16
-15 12 -15 -21 0 51 -71 82 -81 20 -6 55 -29 76 -50 117 -114 266 -106 414 22
18 16 39 29 46 29 31 0 69 48 122 156 31 63 57 120 58 127 2 7 12 33 23 58 18
40 58 187 63 229 12 113 10 181 -6 212 -9 18 -24 38 -33 45 -9 7 -13 13 -9 13
4 0 0 9 -9 19 -9 11 -21 17 -26 14 -6 -4 -7 -1 -3 6 5 8 0 14 -13 18 -12 3
-21 10 -21 16 0 6 -3 8 -6 4 -3 -3 -11 -2 -18 3 -59 49 -75 60 -85 60 -6 0
-11 4 -11 10 0 5 -15 27 -34 48 -45 49 -83 162 -92 270 l-7 82 66 0 c36 0 72
3 81 6 9 3 33 29 53 58 20 28 48 61 61 74 19 18 23 30 20 70 -2 31 -7 46 -16
44 -6 -1 -11 3 -10 9 2 6 -6 16 -16 22 -11 7 -27 20 -37 29 -10 9 -30 25 -46
35 -15 10 -34 26 -41 35 -7 10 -17 16 -21 14 -4 -3 -8 17 -10 44 l-2 49 47 20
c122 54 204 176 229 340 l7 44 -55 -5 c-79 -6 -177 -59 -252 -133 -64 -64 -86
-76 -77 -42 14 54 134 135 317 212 22 9 56 24 75 32 19 8 35 14 35 13 0 -2 18
6 40 18 46 23 114 92 141 143 25 47 26 164 2 202 -10 14 -18 33 -18 42 0 8 -4
15 -10 15 -5 0 -10 6 -10 14 0 7 -6 19 -14 25 -7 6 -16 35 -20 64 -8 61 -46
177 -58 177 -5 0 -6 5 -3 10 3 6 1 10 -5 10 -6 0 -9 4 -5 9 9 15 -12 22 -23 8
-8 -9 -5 -32 8 -80 10 -37 15 -67 10 -67 -4 0 -11 7 -14 16 -3 8 -11 12 -17 8
-7 -4 -9 -3 -6 3 4 6 0 13 -8 17 -20 7 -28 -10 -15 -34 6 -11 8 -20 5 -20 -3
0 12 -33 34 -73 45 -81 68 -193 57 -271 -7 -44 -27 -73 -44 -62 -5 3 -13 40
-17 83 -4 42 -14 102 -22 132 -8 31 -17 66 -19 79 -6 29 -44 132 -76 203 -14
30 -33 75 -44 101 -10 27 -23 46 -29 44 -19 -6 -7 -93 30 -227 56 -200 75
-296 75 -381 0 -73 -2 -80 -31 -113 -24 -27 -39 -35 -58 -33 -24 3 -26 7 -28
58 -5 107 -13 140 -32 140 -25 0 -34 14 -60 85 -56 150 -85 215 -95 212 -13
-4 -17 -45 -4 -53 4 -3 6 -9 3 -14 -3 -5 19 -83 49 -172 59 -177 72 -239 62
-292 -6 -30 -16 -39 -71 -70 -36 -20 -75 -38 -88 -41 -34 -9 -53 20 -61 90 -4
33 -13 89 -22 125 -8 36 -15 71 -16 78 -1 7 -8 11 -17 10 -12 -3 -15 -13 -12
-43 2 -22 8 -96 15 -165 6 -69 10 -151 8 -182 l-3 -58 -101 0 c-108 0 -139 11
-184 62 -23 27 -24 38 -27 315 -1 94 -5 175 -10 179 -18 19 -28 -22 -36 -154
-10 -154 -20 -185 -68 -203 -15 -5 -39 -7 -55 -4 -15 4 -31 7 -35 8 -5 0 -35
15 -68 33 -43 23 -69 46 -92 80 -18 27 -33 54 -33 61 0 7 -5 13 -11 13 -5 0
-7 5 -4 10 14 23 -16 8 -31 -16 l-17 -26 -26 33 c-14 18 -31 48 -37 68 -19 61
10 100 136 185 70 47 156 96 235 134 28 13 58 31 68 40 9 8 17 12 17 8 0 -12
213 104 268 146 38 28 51 43 43 51 -7 7 -71 -13 -213 -68 -112 -43 -219 -85
-238 -94 -19 -8 -37 -15 -40 -15 -3 -1 -27 -10 -53 -20 -70 -26 -76 -15 -44
81 15 43 27 85 27 92 0 32 -40 -25 -95 -132 -63 -124 -73 -139 -86 -131 -14 8
-11 28 12 89 28 75 79 148 173 246 103 109 132 147 119 160 -6 6 -30 -7 -67
-36z"/>
</g>
</svg>
